<?xml version="1.0" encoding="utf-8"?>
<svg viewBox="0 0 30 20" width="30" height="20" xmlns="http://www.w3.org/2000/svg">
  <path d="M 13.732 14.929 L 3.499 10.652 L 3.499 9.103 L 13.732 4.816 L 13.732 6.672 L 5.828 9.873 L 13.732 13.073 Z" style="white-space: pre;"/>
  <path d="M 16.769 7.935 L 19.156 7.935 L 19.786 4.969 L 20.687 4.969 L 20.057 7.935 L 23.133 7.935 L 23.756 4.969 L 24.657 4.969 L 24.034 7.935 L 25.47 7.935 L 25.47 8.828 L 23.844 8.828 L 23.294 11.546 L 25.47 11.546 L 25.47 12.447 L 23.111 12.447 L 22.481 15.391 L 21.581 15.391 L 22.21 12.447 L 19.12 12.447 L 18.497 15.391 L 17.596 15.391 L 18.219 12.447 L 16.769 12.447 L 16.769 11.546 L 18.409 11.546 L 18.973 8.828 L 16.769 8.828 Z M 19.874 8.828 L 19.303 11.546 L 22.394 11.546 L 22.95 8.828 Z" style="white-space: pre;"/>
</svg>