<?xml version="1.0" encoding="utf-8"?>
<svg viewBox="0 0 30 20" width="30" height="20" xmlns="http://www.w3.org/2000/svg">
  <rect x="0" y="0" width="2" height="20" style="stroke-dasharray: 5px;"/>
  <rect x="28" y="0" width="2" height="20"/>
  <path d="M 4.346 4.986 L 4.346 4.521 Q 5.964 4.023 7.06 3.417 L 7.276 3.608 Q 7.052 5.243 7.052 8.506 L 7.06 9.211 Q 8.305 7.908 8.679 7.696 Q 9.052 7.485 9.725 7.485 Q 10.513 7.485 11.202 7.866 Q 11.891 8.248 12.261 9.045 Q 12.63 9.842 12.63 10.913 Q 12.63 12.988 11.244 14.403 Q 9.858 15.819 7.907 15.819 Q 6.828 15.819 5.641 15.246 Q 5.765 12.415 5.765 7.875 L 5.749 6.19 L 5.749 5.808 Q 5.749 5.235 5.624 5.061 Q 5.5 4.886 5.259 4.886 Q 5.002 4.886 4.346 4.986 Z M 7.06 14.482 Q 7.84 14.93 8.637 14.93 Q 9.758 14.93 10.468 14.113 Q 11.177 13.295 11.177 11.635 Q 11.177 10.182 10.592 9.46 Q 10.007 8.738 9.185 8.738 Q 8.679 8.738 8.231 9.004 Q 7.782 9.269 7.479 9.717 Q 7.176 10.166 7.102 10.589 Q 7.06 10.838 7.06 11.892 Z" style="white-space: pre;"/>
  <path d="M 16.304 7.731 L 18.691 7.731 L 19.321 4.765 L 20.222 4.765 L 19.592 7.731 L 22.668 7.731 L 23.291 4.765 L 24.192 4.765 L 23.569 7.731 L 25.005 7.731 L 25.005 8.624 L 23.379 8.624 L 22.829 11.342 L 25.005 11.342 L 25.005 12.243 L 22.646 12.243 L 22.016 15.187 L 21.116 15.187 L 21.745 12.243 L 18.655 12.243 L 18.032 15.187 L 17.131 15.187 L 17.754 12.243 L 16.304 12.243 L 16.304 11.342 L 17.944 11.342 L 18.508 8.624 L 16.304 8.624 Z M 19.409 8.624 L 18.838 11.342 L 21.929 11.342 L 22.485 8.624 Z" style="white-space: pre;"/>
</svg>